HIERARCHY
ROOT Hips
{
 OFFSET 0.000000 0.000000 0.000000
 CHANNELS 6 Xposition Yposition Zposition Yrotation Xrotation Zrotation
 JOINT Chest
 {
  OFFSET 0.000000 9.585900 0.002600
  CHANNELS 3 Yrotation Xrotation Zrotation
  JOINT Chest2
  {
   OFFSET 0.000000 9.601200 -0.005300
   CHANNELS 3 Yrotation Xrotation Zrotation
   JOINT Chest3
   {
    OFFSET 0.000000 9.561800 0.000000
    CHANNELS 3 Yrotation Xrotation Zrotation
    JOINT Chest4
    {
     OFFSET 0.000000 9.552100 0.000000
     CHANNELS 3 Yrotation Xrotation Zrotation
     JOINT Neck
     {
      OFFSET 0.000000 14.453000 0.000000
      CHANNELS 3 Yrotation Xrotation Zrotation
      JOINT Head
      {
       OFFSET 0.000000 8.936500 -0.011300
       CHANNELS 3 Yrotation Xrotation Zrotation
       End Site
       {
        OFFSET 0.000000 17.073600 -0.006000
       }
      }
     }
     JOINT RightCollar
     {
      OFFSET -2.921100 9.558500 0.000000
      CHANNELS 3 Yrotation Xrotation Zrotation
      JOINT RightShoulder
      {
       OFFSET -13.519700 0.000000 0.000000
       CHANNELS 3 Yrotation Xrotation Zrotation
       JOINT RightElbow
       {
        OFFSET 0.000000 -29.696600 0.000000
        CHANNELS 3 Yrotation Xrotation Zrotation
        JOINT RightWrist
        {
         OFFSET 0.000000 -24.004700 0.000000
         CHANNELS 3 Yrotation Xrotation Zrotation
         End Site
         {
          OFFSET 0.000000 -17.728500 0.000000
         }
        }
       }
      }
     }
     JOINT LeftCollar
     {
      OFFSET 2.921100 9.558500 0.000000
      CHANNELS 3 Yrotation Xrotation Zrotation
      JOINT LeftShoulder
      {
       OFFSET 13.519700 0.000000 0.000000
       CHANNELS 3 Yrotation Xrotation Zrotation
       JOINT LeftElbow
       {
        OFFSET 0.000000 -29.696600 0.000000
        CHANNELS 3 Yrotation Xrotation Zrotation
        JOINT LeftWrist
        {
         OFFSET 0.000000 -24.004700 0.000000
         CHANNELS 3 Yrotation Xrotation Zrotation
         End Site
         {
          OFFSET 0.000000 -17.728500 0.000000
         }
        }
       }
      }
     }
    }
   }
  }
 }
 JOINT RightHip
 {
  OFFSET -7.771700 -0.012900 -0.001300
  CHANNELS 3 Yrotation Xrotation Zrotation
  JOINT RightKnee
  {
   OFFSET 0.000000 -40.869800 0.001200
   CHANNELS 3 Yrotation Xrotation Zrotation
   JOINT RightAnkle
   {
    OFFSET 0.000000 -39.717900 0.002100
    CHANNELS 3 Yrotation Xrotation Zrotation
    JOINT RightToe
    {
     OFFSET 0.000000 -4.965400 11.033500
     CHANNELS 3 Yrotation Xrotation Zrotation
     End Site
     {
      OFFSET 0.000000 -1.423100 5.872300
     }
    }
   }
  }
 }
 JOINT LeftHip
 {
  OFFSET 7.771700 -0.012900 -0.001300
  CHANNELS 3 Yrotation Xrotation Zrotation
  JOINT LeftKnee
  {
   OFFSET 0.000000 -40.869800 0.001200
   CHANNELS 3 Yrotation Xrotation Zrotation
   JOINT LeftAnkle
   {
    OFFSET 0.000000 -39.717900 0.002100
    CHANNELS 3 Yrotation Xrotation Zrotation
    JOINT LeftToe
    {
     OFFSET 0.000000 -4.965400 11.033500
     CHANNELS 3 Yrotation Xrotation Zrotation
     End Site
     {
      OFFSET 0.000000 -1.423100 5.872300
     }
    }
   }
  }
 }
}
MOTION
Frames: 16
Frame Time: 0.008333
-77.863649 55.608379 -40.982309 -173.087313 -14.341670 -0.706444 -0.517459 15.140283 0.599770 -0.050659 1.398479 0.072441 -0.079378 2.361993 0.127735 -0.388841 13.538457 0.699152 -0.776054 12.525088 -3.490658 -0.009110 -12.522328 -3.522124 -0.123108 0.362318 0.092065 -2.997073 -6.807214 -5.009577 -72.564615 -47.251422 103.671989 -14.643729 18.663004 -1.955589 -6.383250 -1.178575 2.806279 3.662372 -11.627015 4.303068 50.897356 -38.735699 -95.396437 16.872955 -12.034861 11.466149 -5.304762 -60.898258 8.788577 -23.686753 86.179599 -28.733662 -9.962241 -18.295544 13.782215 0.017380 -0.031929 0.035056 10.613243 -57.857977 -12.975728 90.838570 70.229845 92.597486 1.385043 -19.029817 -3.334863 -0.087243 0.134005 -0.018001
-77.867667 55.608047 -40.982534 -173.080345 -14.343557 -0.708441 -0.522642 15.144717 0.602895 -0.050546 1.402357 0.073415 -0.081301 2.370128 0.135122 -0.408405 13.546807 0.706330 -0.765847 12.457662 -3.519443 -0.002217 -12.582930 -3.545301 -0.104118 0.347076 0.066438 -2.995728 -6.828645 -5.043130 -72.536002 -47.228887 103.651109 -14.616809 18.669204 -1.946635 -6.381554 -1.224118 2.807415 3.653843 -11.694691 4.387733 50.850005 -38.630664 -95.411222 16.899432 -12.102187 11.515598 -5.307259 -60.895453 8.793937 -23.825724 86.173807 -28.868631 -10.013077 -18.288411 13.782952 0.014627 -0.024679 0.031739 10.624955 -57.851474 -12.986170 90.825661 70.233302 92.587444 1.376732 -19.035804 -3.331945 -0.081594 0.136099 -0.016389
-77.870834 55.608554 -40.983128 -173.063392 -14.348309 -0.718718 -0.535963 15.152002 0.612953 -0.050097 1.406094 0.077540 -0.083388 2.366248 0.129757 -0.410678 13.548298 0.707644 -0.763136 12.413278 -3.528163 -0.000100 -12.593722 -3.553491 -0.098462 0.349674 0.060035 -2.998928 -6.839122 -5.052329 -72.453268 -47.250786 103.604293 -14.615520 18.637865 -1.951878 -6.398470 -1.247361 2.827452 3.663389 -11.717747 4.418466 50.833927 -38.574936 -95.407981 16.920262 -12.127844 11.532764 -5.323386 -60.886189 8.799104 -23.870543 86.170204 -28.911739 -10.021288 -18.286139 13.784731 0.026266 -0.022912 0.030147 10.630611 -57.840037 -12.988354 90.802545 70.244347 92.572756 1.360458 -19.044646 -3.327994 -0.069843 0.142087 -0.007838
-77.874430 55.609432 -40.982530 -173.056834 -14.346979 -0.722974 -0.539954 15.158316 0.620772 -0.046096 1.418604 0.079694 -0.088983 2.357415 0.129697 -0.415185 13.554185 0.713257 -0.758239 12.358877 -3.545355 0.006299 -12.676233 -3.574811 -0.087281 0.336444 0.042795 -3.001086 -6.856725 -5.098527 -72.367812 -47.227548 103.560475 -14.607249 18.608492 -1.958162 -6.430266 -1.300301 2.873747 3.680177 -11.785170 4.494294 50.823495 -38.435792 -95.394875 16.939537 -12.137169 11.605280 -5.326834 -60.883680 8.798923 -23.878328 86.164423 -28.920421 -10.021356 -18.282937 13.787838 0.038211 -0.021558 0.029403 10.635234 -57.836718 -12.989903 90.786053 70.248532 92.553572 1.352528 -19.049469 -3.319202 -0.064421 0.145078 -0.008817
-77.877229 55.610629 -40.980993 -173.048388 -14.339514 -0.731204 -0.537420 15.168789 0.630505 -0.052679 1.405847 0.079486 -0.086343 2.366513 0.131438 -0.417932 13.560025 0.718380 -0.757072 12.312029 -3.554318 0.015703 -12.760312 -3.591638 -0.084188 0.317791 0.033031 -2.990956 -6.876658 -5.171988 -72.306655 -47.168841 103.532244 -14.600185 18.620648 -1.972620 -6.440487 -1.329508 2.884406 3.664051 -11.877564 4.606345 50.811651 -38.322631 -95.375555 16.946981 -12.156111 11.652582 -5.342174 -60.886948 8.806393 -23.826269 86.161580 -28.880127 -9.975680 -18.275946 13.789933 0.016585 -0.031802 0.025143 10.634329 -57.840618 -12.987598 90.753822 70.252274 92.522577 1.342470 -19.047627 -3.313747 -0.057660 0.147424 -0.008542
-77.879361 55.612568 -40.980672 -173.045842 -14.338769 -0.741836 -0.533602 15.174904 0.641237 -0.054596 1.403403 0.080651 -0.081195 2.383235 0.132944 -0.422435 13.554484 0.724433 -0.752238 12.265287 -3.562960 0.017080 -12.790738 -3.596749 -0.081171 0.303735 0.022071 -2.993488 -6.881204 -5.177473 -72.225944 -47.177924 103.498203 -14.595519 18.614829 -1.988873 -6.448756 -1.354041 2.893925 3.655601 -11.945667 4.686793 50.802842 -38.257789 -95.353392 16.949851 -12.172379 11.694374 -5.358636 -60.881952 8.826142 -23.763375 86.154255 -28.826208 -9.964875 -18.263882 13.800133 -0.002201 -0.033989 0.015139 10.627812 -57.840409 -12.974866 90.741026 70.256099 92.513077 1.335792 -19.045863 -3.316344 -0.049195 0.145416 -0.009805
-77.881791 55.614905 -40.980694 -173.043013 -14.339556 -0.749720 -0.531439 15.181109 0.649772 -0.050680 1.413004 0.080367 -0.084182 2.377387 0.134502 -0.419676 13.561881 0.727256 -0.747495 12.213511 -3.565547 0.016838 -12.826941 -3.600326 -0.071681 0.282827 0.013517 -2.992512 -6.882640 -5.207509 -72.164501 -47.162361 103.472741 -14.593593 18.590136 -2.009407 -6.478538 -1.383488 2.923952 3.670989 -12.003394 4.747448 50.797768 -38.208610 -95.333542 16.954891 -12.198443 11.734294 -5.374706 -60.875921 8.843333 -23.729617 86.148459 -28.791824 -9.989989 -18.250672 13.808546 0.016658 -0.038298 0.011470 10.617379 -57.839894 -12.963379 90.736014 70.260159 92.507958 1.334369 -19.042387 -3.319998 -0.046221 0.141425 -0.007245
-77.883828 55.617429 -40.980797 -173.043958 -14.339499 -0.757544 -0.527633 15.184727 0.659274 -0.049554 1.415846 0.080880 -0.084149 2.377394 0.134975 -0.414628 13.569927 0.729889 -0.746329 12.174578 -3.565613 0.019183 -12.885404 -3.604612 -0.066977 0.265155 0.005347 -2.976447 -6.886389 -5.236610 -72.133832 -47.143002 103.454098 -14.587455 18.573007 -2.024427 -6.498205 -1.408494 2.949097 3.678100 -12.061390 4.808180 50.797576 -38.167103 -95.318094 16.958650 -12.236107 11.775315 -5.410959 -60.867999 8.876054 -23.632617 86.142475 -28.709072 -9.976911 -18.241298 13.814931 0.018347 -0.040421 0.004448 10.619531 -57.837141 -12.957247 90.719368 70.266103 92.497114 1.330790 -19.043795 -3.328078 -0.041655 0.141974 0.000060
-77.886464 55.620129 -40.981309 -173.048296 -14.341125 -0.759676 -0.522792 15.187594 0.662904 -0.048660 1.417953 0.081169 -0.084496 2.376213 0.135071 -0.399218 13.596664 0.741677 -0.755941 12.123168 -3.569808 0.016808 -12.894090 -3.607113 -0.076280 0.233303 -0.006731 -2.938457 -6.888426 -5.271949 -72.159987 -47.112780 103.451008 -14.575352 18.580512 -2.022829 -6.535792 -1.461507 3.002004 3.706760 -12.068161 4.793195 50.802641 -38.184848 -95.304539 16.961801 -12.282989 11.811507 -5.417308 -60.860325 8.892387 -23.860038 86.123632 -28.936617 -10.001440 -18.229019 13.825895 0.014539 -0.034082 0.003168 10.625439 -57.829209 -12.956491 90.697089 70.267355 92.478337 1.326640 -19.046067 -3.331824 -0.037367 0.143490 0.002677
-77.889176 55.622679 -40.981326 -173.047131 -14.338352 -0.760792 -0.521045 15.190440 0.664775 -0.049803 1.415888 0.081199 -0.082726 2.382024 0.135989 -0.400230 13.593850 0.742538 -0.751495 12.096350 -3.563885 0.018692 -12.943019 -3.603941 -0.073287 0.222541 -0.011352 -2.896464 -6.878912 -5.297021 -72.136078 -47.104982 103.433334 -14.567597 18.541117 -2.023982 -6.546697 -1.478083 3.029940 3.716702 -12.090359 4.807333 50.816117 -38.207493 -95.292512 16.963430 -12.335730 11.844191 -5.423555 -60.856835 8.896428 -23.817701 86.115514 -28.896598 -10.003576 -18.222119 13.831188 0.017939 -0.032590 0.000418 10.632011 -57.826500 -12.961333 90.672981 70.269509 92.455290 1.322879 -19.045849 -3.331368 -0.034894 0.144681 0.006176
-77.890821 55.625345 -40.982242 -173.049161 -14.338998 -0.766665 -0.516301 15.198344 0.671464 -0.047495 1.424553 0.084966 -0.082102 2.384059 0.137268 -0.403745 13.581281 0.739620 -0.749446 12.081354 -3.560537 0.022235 -12.995165 -3.593926 -0.064031 0.214622 -0.021573 -2.861418 -6.865343 -5.312364 -72.043641 -47.116098 103.419689 -14.581320 18.428222 -2.069274 -6.553453 -1.495502 3.054992 3.720165 -12.133500 4.863087 50.842803 -38.188186 -95.290075 16.962028 -12.393322 11.875057 -5.445075 -60.852272 8.919489 -23.822507 86.110144 -28.907238 -9.993898 -18.199268 13.830999 0.015942 -0.050660 -0.001237 10.633001 -57.822942 -12.955200 90.667209 70.271361 92.453098 1.317878 -19.048683 -3.333022 -0.031178 0.143718 0.005986
-77.891113 55.627795 -40.983022 -173.060738 -14.336570 -0.776875 -0.498702 15.203195 0.689841 -0.049520 1.421291 0.082119 -0.080562 2.389058 0.137814 -0.399555 13.583972 0.748455 -0.753728 12.060694 -3.563340 0.022960 -13.029402 -3.585170 -0.060071 0.201946 -0.035706 -2.856066 -6.859457 -5.314597 -71.988891 -47.109637 103.411562 -14.569199 18.378528 -2.084836 -6.562738 -1.521097 3.072612 3.725020 -12.170062 4.914431 50.858592 -38.136863 -95.295029 16.920392 -12.464674 11.912623 -5.465726 -60.849938 8.949243 -23.852626 86.097708 -28.939016 -9.958501 -18.176704 13.823225 -0.007814 -0.070292 -0.003757 10.626400 -57.826508 -12.932659 90.682991 70.271383 92.470677 1.312855 -19.054027 -3.336321 -0.025353 0.140682 0.004809
-77.892720 55.629999 -40.983702 -173.066295 -14.332868 -0.779717 -0.492242 15.207047 0.694194 -0.049337 1.417899 0.082282 -0.078104 2.391296 0.137940 -0.389257 13.598581 0.753514 -0.761099 12.024962 -3.557240 0.023095 -13.052591 -3.574258 -0.048817 0.178907 -0.052602 -2.866810 -6.851312 -5.304103 -71.932702 -47.093936 103.407660 -14.578594 18.343841 -2.065987 -6.579153 -1.552741 3.099911 3.728995 -12.249011 5.019800 50.905870 -38.065339 -95.301930 16.975902 -12.473440 11.910406 -5.478271 -60.851193 8.960983 -23.779969 86.095050 -28.872990 -9.915754 -18.155490 13.814850 0.019307 -0.069456 0.000540 10.630075 -57.824510 -12.927781 90.666069 70.273896 92.454252 1.308808 -19.060737 -3.335420 -0.022731 0.144530 0.003612
-77.893844 55.631802 -40.984140 -173.069755 -14.325464 -0.784968 -0.484264 15.205826 0.701017 -0.048514 1.418571 0.082590 -0.080585 2.386406 0.138131 -0.387536 13.599288 0.754128 -0.754018 12.009244 -3.548011 0.017140 -13.056699 -3.571031 -0.041713 0.176546 -0.060531 -2.846567 -6.843018 -5.297303 -71.892891 -47.075042 103.407327 -14.574134 18.298383 -2.080520 -6.588799 -1.561387 3.128056 3.743538 -12.280746 5.049999 50.957389 -38.068156 -95.307578 17.019154 -12.470367 11.910409 -5.500364 -60.853024 8.983389 -23.745104 86.087784 -28.844615 -9.890724 -18.142828 13.808113 0.031700 -0.066595 0.002672 10.622463 -57.833392 -12.916397 90.668122 70.273852 92.453335 1.306442 -19.058490 -3.333432 -0.021609 0.140315 0.000848
-77.894967 55.633174 -40.984522 -173.072190 -14.315446 -0.789739 -0.477272 15.202368 0.706723 -0.047575 1.418335 0.082738 -0.078717 2.385942 0.138311 -0.377074 13.598219 0.756547 -0.757800 11.991404 -3.534491 0.009448 -13.059259 -3.567892 -0.050427 0.173955 -0.065545 -2.833274 -6.834881 -5.284839 -71.848412 -47.057384 103.412152 -14.556354 18.249560 -2.111787 -6.611110 -1.568299 3.158289 3.761148 -12.309506 5.071745 51.007760 -38.046799 -95.321635 17.010464 -12.508663 11.944368 -5.515484 -60.858701 8.999605 -24.045653 86.068704 -29.147095 -9.849822 -18.131256 13.802059 0.036242 -0.062352 0.004989 10.611135 -57.847396 -12.906150 90.682659 70.278854 92.466081 1.306552 -19.053647 -3.332154 -0.018601 0.132718 -0.002525
-77.892750 55.634758 -40.987833 -173.080216 -14.318353 -0.814329 -0.456791 15.212908 0.735354 -0.042647 1.428411 0.083749 -0.079335 2.379724 0.138228 -0.371891 13.595922 0.757090 -0.758073 11.961944 -3.509635 0.001312 -13.070789 -3.561944 -0.061502 0.167761 -0.066842 -2.809556 -6.830445 -5.274446 -71.827610 -47.045805 103.414840 -14.570000 18.231331 -2.109856 -6.628097 -1.577781 3.176052 3.775072 -12.333428 5.097665 51.062972 -38.028773 -95.343137 17.001448 -12.517793 11.976489 -5.572009 -60.853188 9.068349 -24.243890 86.062289 -29.344133 -9.835610 -18.112762 13.790316 0.015977 -0.070711 0.006246 10.565553 -57.853435 -12.853204 90.700127 70.277157 92.477230 1.311339 -19.018334 -3.330839 -0.025606 0.095173 -0.005811
